<svg width="30" height="28" viewBox="0 0 30 28" fill="none" xmlns="http://www.w3.org/2000/svg">
<path fill-rule="evenodd" clip-rule="evenodd" d="M24.6041 20.9886C23.2966 20.2386 22.0356 19.8696 21.0462 19.6466C21.0482 19.6456 21.0502 19.6456 21.0522 19.6446C20.9533 19.6226 20.8644 19.6046 20.7705 19.5856C20.7089 19.5726 20.6474 19.5586 20.5878 19.5476C20.0214 19.4316 19.5761 19.3586 19.3328 19.2796C18.6937 19.0686 18.0062 18.8456 18.0062 17.9456C18.0062 17.0467 17.994 16.9287 18.2121 16.8087C18.6271 16.5767 18.8724 16.2187 18.9269 15.9407C19.0279 15.4217 19.0804 13.9677 19.2117 13.7827C19.3429 13.5938 19.5782 13.7547 19.6589 13.3288C19.7367 12.9028 19.7367 12.5288 19.8144 12.3698C19.8932 12.2098 20.1678 11.1778 19.9982 10.8238C19.8467 10.5078 19.5721 10.6728 19.5529 10.4768C19.5196 10.1578 20.1062 7.47991 19.7094 6.34594C19.4863 5.70296 19.0148 5.10697 19.0107 5.09297C18.722 4.052 16.73 3.49402 16.2312 3.28002C15.7325 3.06703 14.2655 2.77404 13.269 3.28002C12.2725 3.78701 12.0049 4.46899 11.5839 4.73498C11.1649 5.00298 10.7176 5.16597 10.3057 6.34594C9.90892 7.47991 10.4955 10.1578 10.4632 10.4768C10.444 10.6728 10.1684 10.5078 10.019 10.8238C9.84733 11.1778 10.123 12.2098 10.2007 12.3698C10.2795 12.5288 10.2795 12.9028 10.3592 13.3288C10.437 13.7547 10.6722 13.5938 10.8045 13.7827C10.9357 13.9677 10.9882 15.4217 11.0892 15.9407C11.1427 16.2187 11.389 16.5767 11.804 16.8087C12.0211 16.9287 12.01 17.0467 12.01 17.9456C12.01 18.8456 11.3234 19.0686 10.6823 19.2796C9.99575 19.5056 7.75436 19.6346 5.39587 20.9886C3.36853 22.1515 3.5018 25.4994 3.5018 25.4994H12.4582H14.5128H26.4982C26.4982 25.4994 26.6324 22.1515 24.6041 20.9886Z" fill="#A3A3A3"/>
</svg>
