<svg width="30" height="28" viewBox="0 0 30 28" fill="none" xmlns="http://www.w3.org/2000/svg">
<path fill-rule="evenodd" clip-rule="evenodd" d="M15 0.5C14.4256 0.5 13.9608 0.964787 13.9608 1.53923V1.71679C13.9608 2.21336 13.6125 2.65634 13.1209 2.73671C12.8848 2.77284 12.6493 2.81957 12.4156 2.87066C11.9334 2.98219 11.4468 2.70992 11.2568 2.25261L11.1889 2.09186C10.9696 1.56103 10.364 1.30808 9.83314 1.52926C9.30231 1.74857 9.04936 2.35479 9.27116 2.88499L9.33907 3.05321C9.53159 3.50803 9.37832 4.0507 8.95715 4.31113C8.75279 4.4376 8.5528 4.57156 8.3609 4.71049C7.95655 4.99772 7.39955 4.93167 7.04878 4.58153L6.9248 4.45505C6.51858 4.0507 5.86127 4.0507 5.45505 4.45505C5.0507 4.86127 5.0507 5.51858 5.45505 5.9248L5.58153 6.04878C5.93167 6.39955 5.99772 6.95655 5.71049 7.3609C5.57156 7.5528 5.4376 7.75279 5.31113 7.95715C5.0507 8.37832 4.50803 8.53159 4.05072 8.34156L3.88499 8.27365C3.35665 8.05434 2.74608 8.3048 2.52677 8.83563C2.30808 9.36397 2.55854 9.97206 3.08937 10.1914L3.25261 10.2568C3.70743 10.4468 3.98219 10.9334 3.87066 11.4156C3.81957 11.6493 3.77284 11.8848 3.73422 12.1209C3.65634 12.6106 3.21336 12.9608 2.71679 12.9608H2.53923C1.96479 12.9608 1.5 13.4256 1.5 14C1.5 14.5744 1.96479 15.0392 2.53923 15.0392H2.71679C3.21336 15.0392 3.65634 15.3875 3.73671 15.8791C3.77284 16.1152 3.81957 16.3507 3.87066 16.5844C3.98219 17.0666 3.70992 17.5532 3.25261 17.7432L3.09186 17.8111C2.56103 18.0304 2.30808 18.636 2.52926 19.1669C2.74857 19.6977 3.35479 19.9506 3.88499 19.7288L4.05321 19.6609C4.51052 19.4709 5.0507 19.6242 5.31362 20.0429C5.4401 20.2472 5.57156 20.4472 5.71049 20.6416C6.00021 21.0459 5.93417 21.6029 5.58402 21.9512L5.45505 22.0777C5.0507 22.4839 5.0507 23.1412 5.45505 23.545C5.86127 23.9518 6.51858 23.9518 6.9248 23.545L7.05127 23.421C7.40204 23.0708 7.95655 23.0023 8.3609 23.292C8.55529 23.4309 8.75528 23.5649 8.95715 23.6914C9.37832 23.9518 9.53408 24.4945 9.34406 24.9518L9.27365 25.115C9.05434 25.6452 9.3073 26.2539 9.83563 26.4751C10.3658 26.6944 10.9721 26.4439 11.1939 25.9131L11.2593 25.7499C11.4493 25.2951 11.9359 25.0203 12.4175 25.1293C12.6511 25.1829 12.8848 25.229 13.1234 25.2683C13.6106 25.3437 13.9608 25.7866 13.9608 26.2832V26.4608C13.9608 27.0352 14.4256 27.5 15 27.5C15.5744 27.5 16.0392 27.0352 16.0392 26.4608V26.2832C16.0392 25.7866 16.3875 25.3437 16.8791 25.2633C17.1152 25.2272 17.3507 25.1804 17.5844 25.1293C18.0666 25.0178 18.5532 25.2901 18.7432 25.7474L18.8111 25.9081C19.0304 26.439 19.636 26.6919 20.1669 26.4707C20.6977 26.2514 20.9506 25.6452 20.7288 25.115L20.6609 24.9468C20.4709 24.4895 20.6242 23.9493 21.0429 23.6864C21.2472 23.5599 21.4472 23.4284 21.6416 23.2895C22.0459 22.9998 22.6029 23.0658 22.9512 23.416L23.0777 23.545C23.4839 23.9493 24.1412 23.9493 24.545 23.545C24.9518 23.1387 24.9518 22.4814 24.545 22.0752L24.421 21.9487C24.0708 21.598 24.0023 21.0435 24.292 20.6391C24.4309 20.4447 24.5649 20.2447 24.6914 20.0404C24.9518 19.6217 25.4945 19.4659 25.9518 19.6559L26.115 19.7263C26.6452 19.9457 27.2539 19.6927 27.4751 19.1644C27.6944 18.6342 27.4439 18.0279 26.9131 17.8061L26.7499 17.7407C26.2951 17.5507 26.0203 17.0641 26.1293 16.5825C26.1829 16.3489 26.229 16.1152 26.2683 15.8766C26.3437 15.3894 26.7866 15.0392 27.2832 15.0392H27.4608C28.0352 15.0392 28.5 14.5744 28.5 14C28.5 13.4256 28.0352 12.9608 27.4608 12.9608H27.2832C26.7866 12.9608 26.3437 12.6125 26.2633 12.1209C26.2272 11.8848 26.1804 11.6493 26.1293 11.4156C26.0178 10.9334 26.2901 10.4468 26.7474 10.2568L26.9081 10.1889C27.439 9.96956 27.6919 9.36397 27.4707 8.83314C27.2514 8.30231 26.6452 8.04936 26.115 8.27116L25.9468 8.33907C25.4895 8.5291 24.9493 8.37583 24.6864 7.95715C24.5599 7.75279 24.4284 7.5528 24.2895 7.35841C23.9998 6.95406 24.0658 6.39706 24.416 6.04878L24.545 5.9223C24.9493 5.51608 24.9493 4.85878 24.545 4.45256C24.1387 4.0482 23.4814 4.0482 23.0752 4.45256L22.9512 4.58153C22.6004 4.93167 22.0435 5.00021 21.6391 4.71049C21.4447 4.57156 21.2447 4.4376 21.0404 4.31113C20.6217 4.0507 20.4684 3.50803 20.6584 3.05072L20.7263 2.88499C20.9457 2.35665 20.6952 1.74608 20.1644 1.52677C19.636 1.30808 19.0279 1.55854 18.8086 2.08937L18.7407 2.25261C18.5507 2.70743 18.0641 2.98219 17.5825 2.87066C17.3489 2.81957 17.1152 2.77284 16.8766 2.73422C16.3875 2.65634 16.0392 2.21336 16.0392 1.71679V1.53923C16.0392 0.964787 15.5744 0.5 15 0.5ZM15 5.69365C19.2348 5.69365 22.7244 8.86492 23.2359 12.9608H16.7962C16.4261 12.3184 15.7402 11.924 15 11.924H14.9975L11.7776 6.34099C12.7683 5.9248 13.8561 5.69365 15 5.69365ZM9.98392 7.38769L13.2038 12.9608C13.0212 13.2773 12.924 13.6349 12.924 14C12.924 14.3626 13.0212 14.7202 13.2038 15.0342L9.98142 20.6098C7.98583 19.0915 6.69365 16.699 6.69365 14C6.69365 11.2985 7.98832 8.90604 9.98392 7.38769ZM16.7962 15.0392H23.2359C22.7244 19.1351 19.2348 22.3064 15 22.3064C13.8561 22.3064 12.7683 22.0752 11.7776 21.659L14.9975 16.076H15C15.742 16.076 16.4261 15.6791 16.7962 15.0392Z" fill="#A3A3A3"/>
</svg>
